<svg xmlns="http://www.w3.org/2000/svg"  viewBox="0 0 50 50" width="250px" height="250px"><path d="M46,13v24c0,4.962-4.038,9-9,9H13c-4.962,0-9-4.038-9-9V13c0-4.962,4.038-9,9-9h24C41.962,4,46,8.038,46,13z M19.5,13	c-1.933,0-3.5,1.567-3.5,3.5s1.567,3.5,3.5,3.5s3.5-1.567,3.5-3.5S21.433,13,19.5,13z M35.936,34.153c0,0-3.55-3.522-3.55-3.521	c-5.799,5.847-14.188,2.195-14.895-5.315c0,0-4.978,0.471-4.978,0.471C13.674,37.996,27.467,42.692,35.936,34.153z M32.63,19.657	c0,0,3.7-3.363,3.7-3.363c-2.1-2.314-3.891-3.443-6.842-4.348c0,0-1.467,4.78-1.467,4.78C28.926,17.004,30.526,17.342,32.63,19.657z"/></svg>