<?xml version="1.0" encoding="UTF-8"?> <svg xmlns="http://www.w3.org/2000/svg" id="Layer_1" version="1.1" viewBox="0 0 778.7 403"><defs><style> .st0 { fill: black; } .st1, .st2 { fill: black; } .st2 { fill-rule: evenodd; } </style></defs><path class="st0" d="M303.7,351.2l10.5,47.8h-127.7c-35.6,0-51.4-18.2-46.6-53.5l7.3-53.5c3.3-26.2-10.3-43.2-35.2-43.2s-43.7,15.5-49.2,39.8l-14.6,106.7c-.3,2.1-2.1,3.6-4.2,3.6H4.8c-2.6,0-4.5-2.2-4.2-4.8l25.3-185c.3-2.1,2.1-3.6,4.2-3.6h39.2c2.6,0,4.5,2.3,4.2,4.8l-2.6,18.7c17.2-18.2,38.9-28.1,63.5-28.1,44,0,68.6,29.6,62.4,75.1l-7.7,58.8c-1.1,10.2,3.7,16.3,13.6,16.3h101Z"></path><path class="st0" d="M731.4,318.1s-1.7,84.9-99.1,84.9-53-12.9-61.1-34.5c-17.2,22.4-40.8,34.5-68.3,34.5-41.1,0-74.4-28.4-68.8-72l8.4-61.8c1.1-10.2-3.7-16.3-14-16.3h-105.6l-6.9-47.8h129c35.6,0,51.4,18.2,46.6,53.5l-8.1,57.6c-3.3,23.5,9.2,39.1,31.6,39.1s39.7-13.7,44.4-34.9l14.9-111.6c.3-2.1,2.1-3.7,4.2-3.7h39.2c2.5,0,4.5,2.2,4.2,4.8l-14.4,106.3c-3.3,23.5,9.2,39.1,31.2,39.1s40.4-14.8,44.8-36.8l14.9-109.8c.3-2.1,2.1-3.6,4.2-3.6h39.2c2.5,0,4.5,2.2,4.2,4.8l-14.8,108.2h0Z"></path><path class="st2" d="M197,35.6c-70.7.1-80.7,76.6-80.5,87.2.8,46.1,45.8,44.1,50.3,44.1,73.6,0,78.1-83.3,78.1-85.7-.9-46.4-44.5-45.6-48-45.6M170.6,136.8c-1.6,0-17.6-2.5-16-21.1.7-7.8,8.4-48.5,38.3-48.5s17.3,3.8,17.5,18.3c0,2.7-6.2,49.7-39.8,51.3"></path><path class="st1" d="M534.6,106l-6,25s-9.1,9.1-21.8,9.1-14.4,0-14.5-10.2c-.5-27.2,42.3-24,42.3-24M540.1,82.8s-30.1-2.5-54.9,8c-18.3,7.8-33.1,23.4-33,48.5,0,7.1,8.7,26.5,35,27.6,1.1.1,22.6,1.3,34.5-6.9l-1.7,7h37.1s13.5-48.7,23.9-98.5c.3-1.3,5.6-34.7-51-32.7-7,.2-30.7-.2-42.4-.2l-7.8,31.6h38.6c30.4,0,24.2,15.7,21.8,15.7"></path><path class="st1" d="M132.3,35.7L141.1.1s-4.6,0-36.4,0C94.5.1,6.6-7.8,0,113.6c-.4,7.4-1,53.7,62,53.7,4.9,0,31.9-.3,38.5-.3l9.1-35.6s-9.4.5-31,.2c-22.5-.2-41.4,4.8-38.5-27.9.6-7.5,9.8-68.1,58.8-68.1h33.3Z"></path><path class="st1" d="M237,167h38.5s20.9-86.1,21.4-88.4c.5-2.1,4.9-11.5,21.6-11.5s15.8,1.3,14.8,15c-.3,4.6-20.2,84.9-20.2,84.9h37.4s21.2-83,22.2-88.5c.3-1.6,9.6-39.2-27.1-42.6-4.6-.4-15.6-2.5-40,6.6l1.4-6.8h-37.1c0,0-32.8,131.4-32.8,131.4h0Z"></path><path class="st1" d="M401.1,16h37.4s-4.3,19.7-4.3,19.7l36-.2-7.7,31.6h-36.6s-12.5,51.3-13.1,53.6c-.9,3.4-5.3,15.8,12,15.8s20.2-.2,20.2-.2l-7.2,30.7s-12.7,0-28.1.1c-4.6,0-40.8,1.6-38.5-27.2.5-5.8,29.8-123.8,29.8-123.8"></path><path class="st1" d="M709.6,16h37.4s-4.3,19.7-4.3,19.7h13.7c0,0,22.3-.2,22.3-.2l-2.3,9.4-5.4,22.1h-31s-5.6,0-5.6,0c0,0-12.5,51.3-13.1,53.6-.9,3.4-5.3,15.8,12,15.8s20.2-.2,20.2-.2l-7.2,30.7s-12.7,0-28.1.1c-4.6,0-40.9,1.6-38.4-27.2.5-5.8,29.8-123.8,29.8-123.8"></path><path class="st1" d="M682.2,67.1s1.5,0-23.8,0c-38.7,0-42.1,42-42,48.9.4,21.4,17,20.4,24.4,20.4,24.2,0,25,0,25,0l-7.4,30.8c-5.8,0-20.1,0-28,0-55,0-54.4-40.3-53.9-45.6,8.4-90.4,85.3-86.1,87.8-86.1,26.2,0,25.9,0,25.9,0l-8,31.6h0Z"></path><path class="st0" d="M219.2,302.1c0-55.2,41.5-97,96.3-97s96.3,41.8,96.3,97-41.5,97-96.3,97-96.3-41.8-96.3-97M362.7,302.1c0-27.8-19.9-49.1-47.1-49.1s-47.1,21.2-47.1,49.1,20.2,49,47.1,49,47.1-21.2,47.1-49"></path></svg> 