<?xml version="1.0" standalone="no"?>
<!DOCTYPE svg PUBLIC "-//W3C//DTD SVG 20010904//EN"
 "http://www.w3.org/TR/2001/REC-SVG-20010904/DTD/svg10.dtd">
<svg version="1.0" xmlns="http://www.w3.org/2000/svg"
 width="500.000000pt" height="500.000000pt" viewBox="0 0 500.000000 500.000000"
 preserveAspectRatio="xMidYMid meet">

<g transform="translate(0.000000,500.000000) scale(0.100000,-0.100000)"
fill="#000000" stroke="none">
<path d="M2975 4319 c-194 -26 -373 -98 -492 -197 -76 -64 -159 -179 -192
-267 -45 -119 -50 -280 -16 -418 27 -105 134 -310 228 -433 47 -61 82 -116 78
-121 -3 -5 -37 -22 -76 -37 -65 -27 -116 -53 -192 -98 l-32 -19 -60 123 c-157
320 -383 509 -710 595 -118 31 -357 43 -479 23 -248 -40 -456 -143 -622 -310
-168 -169 -276 -370 -325 -604 -78 -384 -10 -775 190 -1082 65 -100 203 -243
292 -302 127 -86 289 -152 448 -183 92 -18 398 -18 480 0 215 48 375 125 523
254 l44 37 56 -48 c129 -110 260 -177 440 -225 111 -29 127 -30 317 -31 223
-1 290 9 472 69 176 59 366 169 506 294 37 34 70 61 71 61 2 0 57 -60 122
-132 65 -73 143 -159 173 -191 l55 -57 349 0 c341 0 349 0 336 19 -13 18 -72
83 -494 545 -104 114 -197 219 -205 232 -13 22 -10 32 48 151 82 171 135 317
176 487 40 164 71 344 61 354 -8 8 -501 10 -508 2 -3 -3 -13 -64 -22 -135 -72
-562 -340 -1019 -707 -1206 -145 -73 -349 -97 -516 -60 -176 39 -313 136 -373
265 l-31 66 -281 0 -282 -1 -24 -51 c-31 -67 -130 -164 -206 -205 -104 -55
-202 -77 -345 -77 -103 -1 -138 3 -197 22 -169 53 -310 174 -387 334 -49 101
-74 185 -78 263 l-3 50 890 5 889 5 12 42 c20 68 75 162 129 221 100 110 206
172 455 268 230 88 442 177 510 216 203 113 375 287 454 459 57 124 70 187 70
339 -1 120 -4 144 -28 215 -38 112 -78 176 -155 253 -105 104 -231 166 -426
208 -86 19 -316 26 -410 13z m336 -408 c118 -45 186 -140 196 -275 10 -130
-26 -245 -109 -351 -68 -88 -227 -205 -277 -205 -48 0 -249 275 -297 406 -80
220 11 398 229 444 67 14 195 5 258 -19z m-1961 -841 c255 -56 434 -249 481
-516 6 -36 9 -71 5 -79 -5 -13 -85 -15 -625 -15 -395 0 -622 4 -626 10 -9 14
13 126 36 190 55 149 157 274 274 337 58 30 163 67 215 76 50 8 196 6 240 -3z"/>
</g>
</svg>
