<?xml version="1.0" encoding="UTF-8"?>
<svg xmlns="http://www.w3.org/2000/svg" xmlns:xlink="http://www.w3.org/1999/xlink" width="250px" height="250px" viewBox="0 0 250 250" version="1.1">
<g id="surface1">
<path style=" stroke:none;fill-rule:evenodd;fill:rgb(0%,0%,0%);fill-opacity:1;" d="M 0 125 L 0 250 L 250.179688 249.820312 L 250.359375 0 L 0 0 L 0 125 M 0.175781 125.179688 C 0.175781 193.929688 0.21875 222.105469 0.269531 187.796875 C 0.316406 153.488281 0.316406 97.238281 0.269531 62.796875 C 0.21875 28.355469 0.175781 56.429688 0.175781 125.179688 M 178.75 64.417969 C 173.679688 65.746094 167.988281 69.621094 160.960938 76.53125 C 155.492188 81.910156 147.664062 92.011719 147.980469 93.285156 C 148.046875 93.539062 148.023438 93.609375 147.933594 93.4375 C 147.589844 92.792969 143.292969 100.777344 141.234375 105.894531 C 140.679688 107.269531 140.113281 108.554688 139.976562 108.75 C 139.84375 108.945312 139.164062 110.957031 138.46875 113.214844 C 132.484375 132.675781 132.597656 151.519531 138.804688 170 C 139.300781 171.472656 139.847656 173 140.019531 173.394531 C 140.195312 173.785156 140.832031 175.394531 141.441406 176.964844 C 142.945312 180.839844 143.097656 180.96875 145.042969 179.980469 C 145.902344 179.542969 147.421875 178.664062 148.421875 178.027344 C 149.417969 177.394531 150.585938 176.761719 151.011719 176.625 C 151.4375 176.492188 151.785156 176.230469 151.785156 176.046875 C 151.785156 175.863281 151.949219 175.714844 152.148438 175.714844 C 152.347656 175.714844 153.515625 175.109375 154.738281 174.371094 C 155.960938 173.636719 157.730469 172.628906 158.664062 172.140625 C 159.597656 171.652344 160.703125 170.992188 161.125 170.671875 L 161.890625 170.09375 L 160.8125 167.457031 C 159.226562 163.59375 157.652344 158.238281 156.734375 153.570312 C 155.554688 147.585938 155.558594 135.023438 156.742188 128.75 C 158.410156 119.910156 162.179688 109.980469 165.992188 104.390625 C 168.140625 101.242188 168.617188 100.359375 168.371094 99.964844 C 168.207031 99.699219 168.253906 99.625 168.488281 99.769531 C 168.699219 99.902344 169.242188 99.484375 169.691406 98.84375 C 170.144531 98.203125 170.679688 97.503906 170.882812 97.285156 C 171.082031 97.070312 171.996094 96.027344 172.910156 94.964844 C 176.699219 90.554688 181.242188 86.574219 186.726562 82.847656 L 189.105469 81.234375 L 189.105469 74.992188 C 189.105469 69.34375 189.039062 68.632812 188.375 67.503906 C 186.644531 64.558594 182.847656 63.339844 178.75 64.417969 M 68.75 64.78125 C 66.988281 65.550781 65.082031 67.941406 64.828125 69.703125 C 64.707031 70.554688 64.65625 88.769531 64.714844 110.179688 L 64.820312 149.105469 L 66.148438 151.886719 C 67.011719 153.695312 68.101562 155.277344 69.269531 156.410156 C 71.304688 158.394531 78.789062 162.976562 79.410156 162.621094 C 79.636719 162.492188 79.699219 162.519531 79.550781 162.683594 C 79.402344 162.847656 80.046875 163.410156 80.980469 163.929688 C 83.964844 165.59375 86.183594 166.867188 88.867188 168.453125 C 90.308594 169.304688 91.570312 170 91.671875 170 C 91.769531 170 92.335938 170.34375 92.929688 170.765625 C 94.824219 172.113281 99.179688 174.273438 99.472656 174.007812 C 99.628906 173.867188 99.640625 173.953125 99.5 174.199219 C 99.34375 174.472656 99.496094 174.742188 99.886719 174.886719 C 100.246094 175.015625 101.660156 175.796875 103.035156 176.617188 C 105.425781 178.042969 114.3125 183.148438 117.320312 184.820312 C 118.105469 185.257812 118.972656 185.535156 119.246094 185.441406 C 119.539062 185.335938 119.644531 185.421875 119.503906 185.652344 C 119.367188 185.875 119.765625 186.296875 120.433594 186.636719 C 121.078125 186.960938 121.847656 187.4375 122.144531 187.695312 C 122.4375 187.953125 122.796875 188.183594 122.941406 188.203125 C 123.082031 188.226562 123.761719 188.480469 124.445312 188.765625 C 125.671875 189.277344 127.144531 189.460938 127.144531 189.101562 C 127.144531 189.003906 126.835938 188.238281 126.464844 187.40625 C 126.089844 186.574219 125.355469 184.929688 124.828125 183.75 C 122.644531 178.859375 120.574219 172.050781 118.199219 161.964844 C 116.144531 153.242188 115.910156 134.601562 117.710938 123.214844 C 119.0625 114.65625 123.007812 101.71875 126.125 95.609375 C 126.417969 95.035156 125.832031 93.929688 125.230469 93.929688 C 125.132812 93.929688 123.636719 93.101562 121.902344 92.089844 C 120.167969 91.082031 117.867188 89.738281 116.785156 89.109375 C 115.707031 88.476562 113.9375 87.496094 112.855469 86.925781 C 111.777344 86.359375 110.8125 85.800781 110.714844 85.683594 C 110.617188 85.570312 109.652344 84.988281 108.570312 84.394531 C 107.492188 83.796875 105.160156 82.464844 103.394531 81.429688 C 101.625 80.398438 99.695312 79.273438 99.105469 78.9375 C 98.519531 78.597656 96.535156 77.453125 94.699219 76.394531 C 92.863281 75.332031 90.363281 73.902344 89.140625 73.214844 C 87.917969 72.527344 86.53125 71.683594 86.058594 71.339844 C 85.585938 70.996094 85.066406 70.714844 84.902344 70.714844 C 84.742188 70.714844 83.773438 70.1875 82.75 69.539062 C 76.566406 65.628906 73.746094 64.285156 71.761719 64.300781 C 70.695312 64.308594 69.339844 64.523438 68.75 64.78125 M 187.832031 105.25 C 174.816406 119.101562 170.253906 138.429688 175.789062 156.25 C 177.296875 161.097656 177.402344 161.238281 178.953125 160.355469 C 179.628906 159.972656 180.660156 159.414062 181.25 159.113281 C 183 158.214844 185.640625 155.566406 186.957031 153.382812 C 189.253906 149.566406 189.316406 148.769531 189.207031 125.070312 L 189.105469 103.894531 L 187.832031 105.25 M 138.957031 113.421875 C 138.972656 113.839844 139.058594 113.921875 139.171875 113.636719 C 139.277344 113.378906 139.261719 113.074219 139.144531 112.953125 C 139.027344 112.835938 138.941406 113.046875 138.957031 113.421875 M 136.101562 124.851562 C 136.117188 125.265625 136.203125 125.351562 136.316406 125.066406 C 136.417969 124.808594 136.40625 124.5 136.289062 124.382812 C 136.167969 124.265625 136.085938 124.476562 136.101562 124.851562 M 135.054688 133.570312 C 135.054688 134.0625 135.136719 134.261719 135.238281 134.019531 C 135.335938 133.773438 135.335938 133.371094 135.238281 133.125 C 135.136719 132.878906 135.054688 133.082031 135.054688 133.570312 M 117.171875 161.636719 C 117.1875 162.054688 117.273438 162.136719 117.386719 161.851562 C 117.488281 161.59375 117.476562 161.285156 117.359375 161.167969 C 117.238281 161.050781 117.15625 161.261719 117.171875 161.636719 "/>
</g>
</svg>
