<?xml version="1.0" encoding="UTF-8" standalone="no"?>
<!-- Generator: Adobe Illustrator 26.1.0, SVG Export Plug-In . SVG Version: 6.00 Build 0)  -->

<svg
   version="1.1"
   id="Layer_1"
   x="0px"
   y="0px"
   viewBox="0 0 499.99997 313.48029"
   xml:space="preserve"
   sodipodi:docname="OSN+ purple.svg"
   width="509.99997"
   height="323.48029"
   inkscape:version="1.4 (86a8ad7, 2024-10-11)"
   xmlns:inkscape="http://www.inkscape.org/namespaces/inkscape"
   xmlns:sodipodi="http://sodipodi.sourceforge.net/DTD/sodipodi-0.dtd"
   xmlns="http://www.w3.org/2000/svg"
   xmlns:svg="http://www.w3.org/2000/svg"><defs
   id="defs4" /><sodipodi:namedview
   id="namedview4"
   pagecolor="#ffffff"
   bordercolor="#000000"
   borderopacity="0.25"
   inkscape:showpageshadow="2"
   inkscape:pageopacity="0.0"
   inkscape:pagecheckerboard="0"
   inkscape:deskcolor="#d1d1d1"
   inkscape:zoom="0.62519961"
   inkscape:cx="185.54074"
   inkscape:cy="170.3456"
   inkscape:window-width="1920"
   inkscape:window-height="1001"
   inkscape:window-x="-9"
   inkscape:window-y="-9"
   inkscape:window-maximized="1"
   inkscape:current-layer="Layer_1" />
<style
   type="text/css"
   id="style1">
	.st0, .st1 {fill: black;}
</style>
<g
   id="g4"
   transform="matrix(1.0018545,0,0,1.0018545,-0.0255967,0)">
	<path
   class="st0"
   d="m 485.7,64.6 c -18.7,7.9 -39.6,9.5 -59.3,4.3 V 0 H 391.8 V 60.4 C 368,55 343.2,56.3 320.2,64.3 l 11.3,31.3 c 24.1,-8 41.8,-5.6 60.3,-1.1 v 65.4 h 34.6 v -57 c 8,1.5 16,2.3 24.2,2.3 16.7,-0.1 33.1,-3.5 48.5,-9.9 z"
   id="path1" />
	<path
   class="st1"
   d="m 261.8,116.3 3.6,-1.3 c -0.2,-0.7 -0.4,-1.2 -0.5,-1.7 -2.8,-7.6 -9.9,-27.1 -10.7,-29.4 l -0.1,-0.1 c -3,1.1 -5.9,2.2 -8.9,3.4 -29.1,11.2 -52.4,33.1 -65,61 -7.3,16.4 -11.9,33.8 -13.7,51.6 -0.9,7.8 -2.5,15.5 -5,23 -8.7,26 -25.4,44.9 -50.8,55.9 -2.7,1.2 -5.6,2.2 -8.5,3.3 l 11.4,30.9 c 1.1,-0.4 2,-0.7 2.9,-1 32.8,-11.7 56.7,-32.6 71,-63.4 7.3,-16.4 11.9,-33.8 13.7,-51.5 1,-8.8 3,-17.4 5.9,-25.7 9.7,-26.3 27.8,-44.9 54.7,-55 z"
   id="path2" />
	<path
   class="st1"
   d="M 68.3,266.4 C 59.1,266.3 50,264.4 41.6,260.9 33.2,257.3 25.5,252.2 19.2,245.7 9.8,236.3 3.5,224.3 1.3,211.4 c -2.6,-13.2 -1.2,-26.7 4,-39.2 3.6,-9.1 9.4,-17.3 16.8,-23.9 7.4,-6.6 16.3,-11.4 25.9,-14.1 7.8,-2.4 16,-3.7 24.2,-3.8 13.6,0.1 27,3.8 38.5,10.9 8,4.7 14.9,11.1 20.2,18.6 5.3,7.6 8.8,16.2 10.3,25.2 3,14.5 1.1,29.5 -5.3,42.8 -4.3,9 -10.7,16.9 -18.6,23.2 -7.9,6.3 -17.2,10.7 -27.1,12.9 -7.2,1.9 -14.6,2.7 -21.9,2.4 z M 71,162.7 h -0.4 c -5.3,-0.1 -10.7,1 -15.5,3.3 -4.8,2.3 -9,5.7 -12.2,9.9 -4.8,6.5 -7.4,14.4 -7.2,22.5 0.1,0.7 0.1,1.3 0.2,2 0.1,1.3 0.2,2.7 0.4,4 0.8,7.9 4.5,15.3 10.4,20.9 5.9,5.5 13.7,8.8 21.8,9.2 1,0.1 1.9,0.1 2.8,0.1 5,0.1 9.9,-0.9 14.4,-2.8 4.5,-2 8.6,-4.9 11.8,-8.6 5.7,-6.4 8.9,-14.6 8.9,-23.1 0.5,-6.9 -1,-13.9 -4.4,-20 -6.3,-11.5 -16.8,-17.4 -31,-17.4 z"
   id="path3" />
	<path
   class="st1"
   d="m 366.5,187 c -2.1,-14.8 -9.5,-28.4 -20.9,-38.3 -18.4,-16 -40.2,-20.9 -64.4,-16.5 -16.1,2.7 -30.7,11.1 -40.9,23.6 -9.7,11.6 -15.1,26.2 -15,41.2 -0.2,21 -0.1,42 -0.1,63 0,0.4 0,0.9 0.1,1.3 h 35.6 c 0,-0.7 0,-1.3 0,-1.9 0,-19.8 0,-39.5 0.1,-59.3 0,-2.9 0.2,-5.7 0.6,-8.5 0.6,-4.9 2.4,-9.6 5.1,-13.8 2.8,-4.1 6.5,-7.6 10.8,-10.2 6.6,-3.8 14.2,-5.5 21.8,-4.7 5.4,0.2 10.6,1.7 15.3,4.4 4.7,2.7 8.6,6.4 11.4,10.8 4,6.4 5.9,13.8 5.6,21.3 0,20 0,40 0,60 v 1.9 h 35.7 v -1.9 c 0,-20.1 0.1,-40.2 0,-60.3 0.1,-4.1 -0.2,-8.1 -0.8,-12.1"
   id="path4" />
</g>
</svg>
