<?xml version="1.0" encoding="UTF-8"?> <svg xmlns="http://www.w3.org/2000/svg" xmlns:xlink="http://www.w3.org/1999/xlink" version="1.1" id="Layer_1" x="0px" y="0px" viewBox="0 0 129 86" style="enable-background:new 0 0 129 86;" xml:space="preserve"> <style type="text/css"> .st0{fill: black;} </style> <path class="st0" d="M54.3,40.3c2.1,1.7,2,5-0.3,6.5c-2,1.4-5,2.5-9.4,2.3c-18.8-0.8-25-16.3-24.5-24.7c1.3-21,19.2-24.5,25.2-24.2 C47.9,0.3,62,1,67.5,16.2c2.2,6.1,2.6,13.2,4.7,17.6c3.1,6.6,8,9.3,13.3,9.5c4.5,0.2,14.2-2,16.2-13.3c0,0,0.3-3.1,0.1-13.2 c-0.1-5.7,0.2-13.6,0.2-13.6S101.8,0,105.6,0c3.3,0,3,3.5,3,3.5l-0.1,20.7c0,0,2.8,23.4-21.1,25.8c-6.9,0.7-15.1-2.4-20-11 c-2-3.6-3.1-7.5-4.2-14C60.7,9.8,50.7,6.3,45.3,6.2c-3.1,0-19.8,1.5-19.1,20.3c0.1,2,1.5,11.3,12.5,15.7 C38.8,42.2,46.4,44.8,54.3,40.3z"></path> <path class="st0" d="M54.3,40.3c0,0,2.4-1.5,3.6,0.9c1.7,3.5-5.7,6.6-5.7,6.6"></path> <path class="st0" d="M30.1,82.2c0.8,0.6,0.7,1.8-0.1,2.3c-0.7,0.5-1.8,0.9-3.4,0.8c-6.7-0.3-8.9-5.8-8.7-8.8 c0.5-7.5,6.8-8.7,8.9-8.6c0.9,0,5.9,0.3,7.9,5.7c0.8,2.2,0.9,4.7,1.7,6.3c1.1,2.3,2.8,3.3,4.7,3.4c1.6,0.1,5-0.7,5.7-4.7 c0,0,0.1-1.1,0-4.7c0-2,0.1-4.8,0.1-4.8S47,68,48.3,68c1.2,0,1.1,1.3,1.1,1.3l0,7.3c0,0,1,8.3-7.5,9.2c-2.4,0.2-5.4-0.8-7.1-3.9 c-0.7-1.3-1.1-2.7-1.5-5c-0.9-5.4-4.4-6.6-6.4-6.7c-1.1,0-7,0.5-6.8,7.2c0,0.7,0.5,4,4.4,5.6C24.6,82.9,27.3,83.8,30.1,82.2z"></path> <path class="st0" d="M30.1,82.2c0,0,0.8-0.5,1.3,0.3c0.6,1.2-2,2.3-2,2.3"></path> <path class="st0" d="M5,73.5c-0.8-0.3-1.5-0.7-2.2-1.2c-0.6-0.5-1.2-1-1.6-1.7c-0.4-0.7-0.6-1.4-0.6-2.3c0-0.9,0.2-1.7,0.6-2.5 c0.4-0.7,0.9-1.3,1.6-1.9c0.6-0.5,1.4-0.9,2.2-1.2c0.8-0.3,1.6-0.4,2.5-0.4c0.7,0,1.3,0.1,2,0.2c0.6,0.1,1.2,0.3,1.8,0.6 c0.6,0.3,1.1,0.6,1.5,1c0.5,0.4,0.8,0.9,1.1,1.4c0.1,0.2,0.2,0.4,0.1,0.6c-0.1,0.2-0.2,0.4-0.3,0.5c-0.2,0.2-0.4,0.2-0.6,0.3 c-0.3,0-0.5,0-0.8-0.2c-0.7-0.8-1.4-1.4-2.2-1.7c-0.8-0.3-1.6-0.5-2.6-0.5c-0.5,0-1.1,0.1-1.6,0.2c-0.5,0.2-1,0.4-1.5,0.7 c-0.4,0.3-0.8,0.7-1.1,1.1c-0.3,0.5-0.4,1-0.4,1.6c0,0.6,0.2,1.2,0.5,1.6c0.3,0.4,0.8,0.8,1.3,1.1c0.5,0.3,1.1,0.5,1.7,0.7 C7,71.9,7.5,72,8.1,72.2c0.9,0.3,1.7,0.6,2.5,0.9c0.8,0.3,1.5,0.8,2.2,1.2c0.6,0.5,1.1,1.1,1.5,1.7c0.4,0.7,0.6,1.5,0.6,2.4 c0,1-0.2,1.9-0.6,2.8c-0.4,0.8-0.9,1.5-1.6,2.1c-0.7,0.6-1.5,1-2.4,1.4c-0.9,0.3-1.9,0.5-2.8,0.5c-0.8,0-1.6-0.1-2.4-0.3 C4.3,84.6,3.6,84.3,3,84c-0.6-0.4-1.2-0.8-1.7-1.3c-0.5-0.5-0.9-1.1-1.1-1.7C0,80.6,0,80.3,0.1,80c0.1-0.3,0.3-0.4,0.5-0.6 c0.3-0.2,0.5-0.2,0.8-0.1c0.2,0.1,0.5,0.3,0.7,0.6c0.2,0.5,0.5,0.9,0.9,1.3c0.4,0.4,0.8,0.7,1.3,1c0.5,0.3,1,0.5,1.6,0.6 C6.4,82.9,7,83,7.6,83c0.6,0,1.2-0.1,1.8-0.3c0.6-0.2,1.2-0.5,1.7-0.8c0.5-0.4,0.9-0.8,1.2-1.4c0.3-0.6,0.5-1.2,0.5-1.9 c0-0.7-0.2-1.2-0.5-1.7c-0.3-0.4-0.7-0.8-1.2-1.2c-0.5-0.3-1.1-0.6-1.7-0.8c-0.6-0.2-1.3-0.4-1.9-0.7C6.6,74.1,5.8,73.8,5,73.5z"></path> <path class="st0" d="M55.8,71.5c0.7-0.9,1.5-1.6,2.4-2.1c0.9-0.5,1.9-0.8,3-0.8c1,0,1.9,0.2,2.7,0.6c0.8,0.4,1.5,0.9,2.1,1.6 c0.6,0.7,1,1.5,1.3,2.5c0.3,1,0.5,2.1,0.5,3.3v0v7.3c0,0.3-0.1,0.6-0.3,0.8c-0.2,0.2-0.5,0.3-0.8,0.3c-0.3,0-0.6-0.1-0.8-0.3 c-0.2-0.2-0.3-0.5-0.3-0.8v-7.2v-0.1c0-1.9-0.4-3.3-1.2-4.3c-0.8-1-2-1.5-3.4-1.5c-0.7,0-1.4,0.1-2,0.4c-0.6,0.3-1.2,0.7-1.6,1.2 c-0.5,0.5-0.8,1.1-1.1,1.8c-0.3,0.7-0.4,1.4-0.5,2.2v7.6c0,0.3-0.1,0.6-0.3,0.8C55.3,84.9,55,85,54.7,85c-0.3,0-0.6-0.1-0.8-0.3 c-0.2-0.2-0.3-0.5-0.3-0.8V63.7c0-0.3,0.1-0.6,0.3-0.8c0.2-0.2,0.5-0.3,0.8-0.3c0.3,0,0.6,0.1,0.8,0.3c0.2,0.2,0.3,0.5,0.3,0.8V71.5 z"></path> <path class="st0" d="M73,79.2c0.3,0.7,0.8,1.4,1.3,1.9c0.5,0.6,1.2,1,1.9,1.3c0.7,0.3,1.5,0.5,2.4,0.5c0.9,0,1.7-0.2,2.4-0.5 c0.7-0.3,1.4-0.8,1.9-1.3c0.6-0.6,1-1.2,1.3-1.9c0.3-0.7,0.5-1.5,0.5-2.4c0-0.8-0.2-1.6-0.5-2.4c-0.3-0.7-0.7-1.4-1.3-1.9 c-0.6-0.6-1.2-1-1.9-1.3c-0.7-0.3-1.5-0.5-2.4-0.5c-0.9,0-1.6,0.2-2.4,0.5c-0.7,0.3-1.4,0.8-1.9,1.3c-0.6,0.6-1,1.2-1.3,1.9 c-0.3,0.7-0.5,1.5-0.5,2.4C72.5,77.7,72.6,78.5,73,79.2z M70.9,73.6c0.4-1,1-1.9,1.8-2.7c0.8-0.8,1.6-1.3,2.7-1.8 c1-0.4,2.1-0.7,3.2-0.7c1.2,0,2.2,0.2,3.2,0.7c1,0.4,1.9,1,2.6,1.8c0.8,0.8,1.3,1.6,1.8,2.7c0.4,1,0.7,2.1,0.7,3.3 c0,1.1-0.2,2.2-0.7,3.2c-0.4,1-1,1.9-1.8,2.6c-0.8,0.8-1.6,1.3-2.6,1.8c-1,0.4-2.1,0.7-3.2,0.7c-1.1,0-2.2-0.2-3.2-0.7 c-1-0.4-1.9-1-2.7-1.8c-0.8-0.8-1.4-1.6-1.8-2.6c-0.4-1-0.7-2.1-0.7-3.2C70.3,75.7,70.5,74.6,70.9,73.6z"></path> <path class="st0" d="M91.1,79.2c0.3,0.7,0.8,1.4,1.3,1.9c0.5,0.6,1.2,1,1.9,1.3c0.7,0.3,1.5,0.5,2.4,0.5c0.9,0,1.7-0.2,2.4-0.5 c0.7-0.3,1.4-0.8,1.9-1.3c0.6-0.6,1-1.2,1.3-1.9c0.3-0.7,0.5-1.5,0.5-2.4c0-0.8-0.2-1.6-0.5-2.4c-0.3-0.7-0.7-1.4-1.3-1.9 c-0.6-0.6-1.2-1-1.9-1.3c-0.7-0.3-1.5-0.5-2.4-0.5c-0.9,0-1.6,0.2-2.4,0.5c-0.7,0.3-1.4,0.8-1.9,1.3c-0.6,0.6-1,1.2-1.3,1.9 c-0.3,0.7-0.5,1.5-0.5,2.4C90.7,77.7,90.8,78.5,91.1,79.2z M89.1,73.6c0.4-1,1-1.9,1.8-2.7c0.8-0.8,1.6-1.3,2.7-1.8 c1-0.4,2.1-0.7,3.2-0.7c1.2,0,2.2,0.2,3.2,0.7c1,0.4,1.9,1,2.6,1.8c0.8,0.8,1.3,1.6,1.8,2.7c0.4,1,0.7,2.1,0.7,3.3 c0,1.1-0.2,2.2-0.7,3.2c-0.4,1-1,1.9-1.8,2.6c-0.8,0.8-1.6,1.3-2.6,1.8c-1,0.4-2.1,0.7-3.2,0.7c-1.1,0-2.2-0.2-3.2-0.7 c-1-0.4-1.9-1-2.7-1.8c-0.8-0.8-1.4-1.6-1.8-2.6c-0.4-1-0.7-2.1-0.7-3.2C88.5,75.7,88.7,74.6,89.1,73.6z"></path> <path class="st0" d="M109.8,83.9c0,0.3-0.1,0.6-0.3,0.8c-0.2,0.2-0.5,0.3-0.8,0.3c-0.3,0-0.6-0.1-0.8-0.3c-0.2-0.2-0.3-0.5-0.3-0.8 V63.7c0-0.3,0.1-0.6,0.3-0.8c0.2-0.2,0.5-0.3,0.8-0.3c0.3,0,0.6,0.1,0.8,0.3c0.2,0.2,0.3,0.5,0.3,0.8V83.9z"></path> <path class="st0" d="M114.5,76.9c0,0.8,0.2,1.6,0.5,2.4c0.3,0.7,0.8,1.4,1.3,1.9c0.5,0.6,1.2,1,1.9,1.3c0.7,0.3,1.6,0.5,2.4,0.5 c0.9,0,1.7-0.2,2.4-0.5c0.7-0.3,1.4-0.8,1.9-1.3c0.5-0.6,1-1.2,1.3-1.9c0.3-0.7,0.5-1.5,0.5-2.4c0-0.8-0.2-1.6-0.5-2.4 c-0.3-0.7-0.7-1.4-1.3-1.9c-0.5-0.6-1.2-1-1.9-1.3c-0.7-0.3-1.5-0.5-2.4-0.5c-0.8,0-1.6,0.2-2.4,0.5c-0.7,0.3-1.4,0.8-1.9,1.3 c-0.6,0.6-1,1.2-1.3,1.9C114.7,75.2,114.5,76,114.5,76.9z M112.3,76.9c0-1.2,0.2-2.2,0.7-3.3c0.4-1,1-1.9,1.8-2.7 c0.8-0.8,1.6-1.3,2.7-1.8c1-0.4,2.1-0.7,3.2-0.7s2.2,0.2,3.2,0.6c1,0.4,1.9,1,2.6,1.8c0.8,0.7,1.3,1.6,1.8,2.6 c0.4,1,0.7,2.1,0.7,3.2v0v0.1v7c0,0.3-0.1,0.6-0.3,0.8c-0.2,0.2-0.5,0.3-0.8,0.3c-0.3,0-0.6-0.1-0.8-0.3c-0.2-0.2-0.3-0.5-0.3-0.8 l0-1.5c-0.8,0.9-1.7,1.5-2.7,2.1c-1,0.5-2.2,0.8-3.4,0.8c-1.1,0-2.2-0.2-3.2-0.7s-1.9-1-2.7-1.8c-0.8-0.8-1.4-1.6-1.8-2.6 C112.6,79.1,112.3,78,112.3,76.9z"></path> </svg> 