<?xml version="1.0" encoding="UTF-8"?>
<svg xmlns="http://www.w3.org/2000/svg" xmlns:xlink="http://www.w3.org/1999/xlink" width="1488px" height="500px" viewBox="0 0 1488 500" version="1.1">
<g id="surface1">
<path style=" stroke:none;fill-rule:nonzero;fill:rgb(0%,0%,0%);fill-opacity:1;" d="M 595.199219 80.355469 C 608.984375 90.546875 612.558594 99.972656 616.03125 116.070312 C 617.472656 114.707031 618.917969 113.339844 620.402344 111.933594 C 652.371094 82.667969 680.710938 78.050781 722.863281 79.8125 C 743.652344 81.625 759.089844 93.171875 773.761719 107.144531 C 779.339844 114.023438 779.339844 114.023438 782.6875 119.046875 C 783.847656 117.714844 785.003906 116.386719 786.199219 115.011719 C 804.097656 95.671875 826.960938 81.292969 853.75 79.648438 C 887.816406 78.835938 915.871094 80.695312 941.996094 105.039062 C 958.234375 123.910156 961.574219 144.816406 961.773438 169.066406 C 961.792969 171.042969 961.8125 173.019531 961.835938 175.054688 C 961.890625 181.554688 961.925781 188.054688 961.957031 194.558594 C 961.96875 196.785156 961.980469 199.015625 961.992188 201.3125 C 962.054688 213.105469 962.097656 224.898438 962.125 236.6875 C 962.160156 248.84375 962.261719 260.992188 962.378906 273.144531 C 962.457031 282.519531 962.484375 291.890625 962.492188 301.265625 C 962.507812 305.742188 962.542969 310.222656 962.597656 314.703125 C 962.671875 320.976562 962.667969 327.25 962.648438 333.523438 C 962.664062 337.089844 962.679688 340.652344 962.699219 344.324219 C 960.945312 356.214844 956.738281 362.664062 949.34375 372.023438 C 937.433594 380.210938 924.601562 379.597656 910.65625 377.976562 C 899.535156 373.140625 893.253906 367.390625 886.847656 357.144531 C 883.769531 347.90625 883.464844 341.421875 883.402344 331.734375 C 883.371094 328.355469 883.339844 324.976562 883.308594 321.496094 C 883.289062 317.839844 883.265625 314.183594 883.246094 310.417969 C 883.160156 302.691406 883.074219 294.960938 882.988281 287.230469 C 882.863281 275.039062 882.753906 262.84375 882.675781 250.652344 C 882.601562 238.890625 882.457031 227.128906 882.3125 215.367188 C 882.304688 211.742188 882.292969 208.117188 882.285156 204.382812 C 881.925781 172.65625 881.925781 172.65625 866.363281 145.914062 C 854.640625 140.226562 842.988281 141.070312 830.304688 142.855469 C 815.78125 149.851562 807.933594 158.371094 800.542969 172.617188 C 794.5625 193.769531 793.71875 214.714844 793.671875 236.5625 C 793.597656 243.027344 793.523438 249.496094 793.445312 255.964844 C 793.359375 266.042969 793.289062 276.117188 793.234375 286.195312 C 793.167969 296.003906 793.050781 305.808594 792.929688 315.617188 C 792.929688 318.621094 792.929688 321.625 792.929688 324.71875 C 792.648438 344.570312 789.933594 357.726562 776.550781 373.140625 C 763.753906 380.21875 752.355469 379.886719 738.046875 377.976562 C 728.015625 374.132812 724.429688 370.890625 718.402344 362.09375 C 712.304688 346.125 712.929688 330.992188 712.925781 314.035156 C 712.886719 310.429688 712.847656 306.828125 712.808594 303.113281 C 712.6875 291.609375 712.621094 280.105469 712.566406 268.601562 C 712.496094 257.140625 712.410156 245.675781 712.292969 234.214844 C 712.222656 227.09375 712.175781 219.972656 712.164062 212.847656 C 712.53125 178.078125 712.53125 178.078125 699.546875 146.949219 C 683.980469 139.960938 667.585938 139.839844 651.253906 144.820312 C 641.828125 149.453125 636.941406 154.636719 631.46875 163.503906 C 617.460938 204.648438 620.878906 250.6875 620.625 293.476562 C 620.5625 302.605469 620.445312 311.730469 620.320312 320.859375 C 620.320312 323.640625 620.320312 326.421875 620.320312 329.285156 C 620.085938 344.753906 618.734375 355.675781 610.078125 369.046875 C 599.152344 378.691406 588.839844 379.347656 574.808594 378.835938 C 562.824219 377.222656 556.109375 371.988281 548.328125 363.09375 C 540.703125 350.894531 541.171875 339.238281 541.152344 325.355469 C 541.136719 323.03125 541.121094 320.707031 541.109375 318.3125 C 541.0625 310.621094 541.042969 302.929688 541.027344 295.234375 C 541.011719 289.886719 540.992188 284.535156 540.976562 279.1875 C 540.945312 267.964844 540.925781 256.746094 540.917969 245.523438 C 540.902344 231.164062 540.828125 216.804688 540.746094 202.441406 C 540.6875 191.390625 540.671875 180.335938 540.667969 169.285156 C 540.660156 163.988281 540.636719 158.695312 540.597656 153.402344 C 540.546875 145.988281 540.550781 138.574219 540.570312 131.15625 C 540.542969 128.980469 540.515625 126.804688 540.488281 124.5625 C 540.601562 110.613281 543.265625 101.160156 550.558594 89.285156 C 564.175781 76.945312 577.699219 75.433594 595.199219 80.355469 Z M 595.199219 80.355469 "/>
<path style=" stroke:none;fill-rule:nonzero;fill:rgb(0%,0%,0%);fill-opacity:1;" d="M 1052.761719 84.820312 C 1061.96875 95.054688 1064.929688 105.898438 1068.382812 119.046875 C 1070.042969 117.46875 1071.699219 115.886719 1073.40625 114.257812 C 1104.511719 85.460938 1129.257812 78.851562 1171.066406 79.53125 C 1187.363281 80.210938 1200.085938 84.113281 1214.207031 92.261719 C 1216.484375 93.453125 1218.757812 94.648438 1221.101562 95.878906 C 1249.492188 112.453125 1267.753906 141.4375 1276.703125 172.617188 C 1289.148438 224.550781 1284.128906 277.046875 1258.660156 324.113281 C 1241.789062 351.09375 1217.175781 368.695312 1186.179688 376.90625 C 1152.605469 381.582031 1121.082031 379.851562 1092.597656 360.1875 C 1072.507812 344.558594 1072.507812 344.558594 1068.382812 336.308594 C 1068.339844 339.914062 1068.296875 343.515625 1068.253906 347.226562 C 1068.078125 360.640625 1067.851562 374.050781 1067.601562 387.460938 C 1067.503906 393.257812 1067.421875 399.054688 1067.351562 404.851562 C 1067.253906 413.203125 1067.097656 421.546875 1066.929688 429.898438 C 1066.902344 433.761719 1066.902344 433.761719 1066.875 437.707031 C 1066.449219 455.226562 1063.917969 468.769531 1050.980469 481.679688 C 1038.667969 488.292969 1025.359375 487.28125 1011.839844 485.117188 C 1000.910156 477.246094 996.367188 471.34375 993.984375 458.332031 C 993.707031 453.421875 993.582031 448.496094 993.566406 443.578125 C 993.550781 440.605469 993.53125 437.636719 993.515625 434.574219 C 993.511719 431.332031 993.507812 428.09375 993.503906 424.753906 C 993.488281 421.328125 993.476562 417.898438 993.460938 414.367188 C 993.417969 403.019531 993.394531 391.671875 993.378906 380.324219 C 993.363281 372.445312 993.34375 364.5625 993.328125 356.683594 C 993.300781 342.265625 993.28125 327.851562 993.273438 313.4375 C 993.257812 292.242188 993.207031 271.046875 993.121094 249.851562 C 993.058594 233.449219 993.027344 217.046875 993.023438 200.644531 C 993.019531 190.855469 992.996094 181.070312 992.949219 171.28125 C 992.898438 160.359375 992.902344 149.4375 992.921875 138.515625 C 992.894531 135.289062 992.867188 132.058594 992.839844 128.730469 C 992.929688 112.496094 993.261719 100.089844 1002.910156 86.308594 C 1020.605469 75.761719 1034.59375 74.914062 1052.761719 84.820312 Z M 1089.644531 157.480469 C 1072.371094 180.945312 1064.839844 212.179688 1068.382812 241.070312 C 1074.019531 272.5625 1084.027344 293.414062 1110.046875 312.5 C 1123.117188 320.066406 1136.984375 320.398438 1151.710938 318.453125 C 1172.128906 312.253906 1186.226562 298.808594 1196.351562 280.261719 C 1209.816406 250.550781 1209.933594 212.324219 1199.0625 181.78125 C 1190.0625 161.234375 1175.527344 145.699219 1154.6875 136.90625 C 1130.039062 132.796875 1107.167969 139.40625 1089.644531 157.480469 Z M 1089.644531 157.480469 "/>
<path style=" stroke:none;fill-rule:nonzero;fill:rgb(0%,0%,0%);fill-opacity:1;" d="M 217.246094 107.144531 C 228.378906 117.929688 237.914062 129.640625 238.171875 145.683594 C 237.425781 155.785156 235.96875 162.339844 230.453125 170.945312 C 220.394531 177.394531 211.117188 179.015625 199.390625 178.570312 C 182.960938 174.6875 176.136719 167.476562 165.167969 154.761719 C 152.4375 140.011719 144.261719 132.570312 124.433594 130.160156 C 108.546875 129.410156 97.1875 132.117188 83.328125 139.882812 C 77.105469 145.027344 77.105469 145.027344 74.398438 151.785156 C 74.398438 161.710938 76.191406 165.46875 83.164062 172.539062 C 95.363281 180.632812 107.574219 183.667969 121.644531 187.3125 C 127.269531 188.855469 132.890625 190.398438 138.511719 191.953125 C 141.273438 192.707031 144.03125 193.464844 146.875 194.242188 C 222.597656 215.265625 222.597656 215.265625 243.671875 246.847656 C 254.632812 266.976562 254.679688 287.339844 249.984375 309.523438 C 241.65625 334.148438 227.300781 350.902344 204.855469 363.828125 C 179.207031 376.199219 152.035156 379.089844 123.875 378.90625 C 121.144531 378.890625 118.410156 378.871094 115.59375 378.855469 C 80.089844 378.222656 44.921875 370.738281 18.007812 345.820312 C 2.5625 328.390625 -1.757812 314.683594 -1.300781 291.257812 C 0.0390625 282.484375 1.074219 279.066406 7.441406 273.066406 C 19.734375 266.917969 28.226562 264.589844 41.664062 267.855469 C 54.273438 275.675781 60.457031 283.835938 68.261719 296.316406 C 78.394531 312.34375 89.140625 318.40625 107.136719 324.40625 C 128.054688 326.152344 146.460938 326.378906 165.203125 316.265625 C 170.734375 311.5625 172.992188 307.351562 175.585938 300.59375 C 175.160156 290.417969 174.164062 284.675781 167.738281 276.679688 C 159.101562 269.5 151.515625 266.925781 140.800781 263.578125 C 138.867188 262.960938 136.933594 262.34375 134.941406 261.707031 C 124.324219 258.355469 113.644531 255.242188 102.929688 252.21875 C 65.464844 241.644531 28.402344 230.621094 5.953125 196.242188 C -1.003906 176.152344 -1.179688 149.082031 7.625 129.648438 C 24.175781 102.757812 47.191406 88.832031 77.480469 80.996094 C 123.457031 72.394531 179.785156 76.425781 217.246094 107.144531 Z M 217.246094 107.144531 "/>
<path style=" stroke:none;fill-rule:nonzero;fill:rgb(0%,0%,0%);fill-opacity:1;" d="M 505.921875 77.382812 C 512.683594 83.074219 516.867188 87.367188 520.800781 95.238281 C 521.332031 119.8125 512.714844 141.65625 504.058594 164.25 C 502.609375 168.105469 501.164062 171.964844 499.71875 175.828125 C 495.746094 186.398438 491.726562 196.949219 487.6875 207.496094 C 485.015625 214.472656 482.355469 221.453125 479.695312 228.433594 C 469.382812 255.488281 458.992188 282.511719 448.519531 309.507812 C 443.414062 322.675781 438.335938 335.855469 433.296875 349.046875 C 431.105469 354.78125 428.898438 360.511719 426.691406 366.238281 C 424.078125 373.007812 421.484375 379.78125 418.914062 386.5625 C 404.230469 424.351562 390.585938 458.578125 351.910156 475.632812 C 322.398438 485.261719 288.730469 483.878906 258.910156 476.191406 C 245.386719 466.996094 245.386719 466.996094 241.054688 458.332031 C 239.78125 435.355469 239.78125 435.355469 247.007812 425.59375 C 259.550781 416.851562 274.082031 419.335938 288.613281 419.875 C 301.769531 420.171875 312.523438 419.640625 324.382812 413.691406 C 327.640625 406.769531 327.640625 406.769531 330.335938 398.808594 C 332.363281 394.027344 334.40625 389.25 336.464844 384.476562 C 353.328125 345.125 369.558594 305.558594 385.378906 265.777344 C 386.339844 263.363281 387.300781 260.949219 388.289062 258.464844 C 397.246094 235.953125 406.183594 213.429688 415.109375 190.902344 C 420.054688 178.417969 425.011719 165.941406 429.984375 153.46875 C 431.847656 148.777344 433.707031 144.085938 435.558594 139.390625 C 438.132812 132.867188 440.726562 126.355469 443.324219 119.84375 C 444.066406 117.949219 444.804688 116.058594 445.570312 114.113281 C 459.386719 79.679688 459.386719 79.679688 474.113281 72.730469 C 486.753906 71.230469 494.1875 72.511719 505.921875 77.382812 Z M 505.921875 77.382812 "/>
<path style=" stroke:none;fill-rule:nonzero;fill:rgb(0%,0%,0%);fill-opacity:1;" d="M 1357.054688 8.929688 C 1368.804688 17.152344 1373.699219 25.203125 1377.886719 38.691406 C 1378.714844 47.636719 1378.640625 56.535156 1378.5625 65.515625 C 1378.566406 68.1875 1378.566406 70.859375 1378.566406 73.613281 C 1378.5625 82.421875 1378.515625 91.230469 1378.46875 100.039062 C 1378.457031 106.15625 1378.449219 112.273438 1378.445312 118.390625 C 1378.421875 134.476562 1378.363281 150.558594 1378.296875 166.640625 C 1378.234375 183.058594 1378.207031 199.476562 1378.179688 215.894531 C 1378.113281 248.097656 1378.011719 280.296875 1377.886719 312.5 C 1388.691406 312.5 1399.492188 312.5 1410.625 312.5 C 1405.105469 368.613281 1405.105469 368.613281 1398.71875 375 C 1388.761719 375.839844 1378.761719 375.691406 1368.773438 375.742188 C 1366.007812 375.804688 1363.238281 375.867188 1360.386719 375.929688 C 1342.273438 376.03125 1328.847656 373.859375 1312.414062 366.070312 C 1298.164062 349.0625 1300.070312 326.511719 1300.078125 305.457031 C 1300.070312 302.707031 1300.058594 299.953125 1300.050781 297.121094 C 1300.019531 288.054688 1300.015625 278.992188 1300.011719 269.925781 C 1300.003906 263.601562 1299.992188 257.28125 1299.980469 250.957031 C 1299.964844 237.710938 1299.957031 224.46875 1299.960938 211.222656 C 1299.960938 194.285156 1299.921875 177.347656 1299.867188 160.40625 C 1299.835938 147.347656 1299.828125 134.292969 1299.832031 121.234375 C 1299.828125 114.992188 1299.816406 108.746094 1299.792969 102.503906 C 1299.761719 93.757812 1299.769531 85.011719 1299.789062 76.265625 C 1299.773438 73.707031 1299.753906 71.148438 1299.738281 68.515625 C 1299.839844 49.144531 1301.550781 31.671875 1312.042969 14.882812 C 1326.441406 5.664062 1340.453125 6.054688 1357.054688 8.929688 Z M 1357.054688 8.929688 "/>
<path style=" stroke:none;fill-rule:nonzero;fill:rgb(0%,0%,0%);fill-opacity:1;" d="M 1422.527344 312.5 C 1430.097656 312.09375 1437.644531 311.800781 1445.21875 311.570312 C 1447.339844 311.445312 1449.464844 311.320312 1451.648438 311.191406 C 1463.363281 310.921875 1471.011719 311.859375 1480.5 319.070312 C 1488.402344 327.824219 1490.386719 330.734375 1490.046875 342.261719 C 1489.355469 353.550781 1488.25 356.800781 1481.304688 366.257812 C 1470.453125 373.902344 1462.066406 375.390625 1448.988281 375.289062 C 1446.742188 375.28125 1444.5 375.269531 1442.1875 375.261719 C 1439.871094 375.238281 1437.558594 375.210938 1435.175781 375.1875 C 1432.816406 375.171875 1430.457031 375.160156 1428.027344 375.144531 C 1422.226562 375.109375 1416.425781 375.058594 1410.625 375 C 1413.964844 353.992188 1417.695312 333.21875 1422.527344 312.5 Z M 1422.527344 312.5 "/>
<path style=" stroke:none;fill-rule:nonzero;fill:rgb(0%,0%,0%);fill-opacity:1;" d="M 315.457031 77.382812 C 324.070312 84.226562 326.847656 87.746094 330.335938 98.214844 C 331.441406 113.128906 330.6875 121.996094 321.40625 133.929688 C 310.148438 143.972656 301.804688 144.535156 287.125 144.125 C 275.039062 142.050781 270.054688 136.980469 261.886719 127.976562 C 258.179688 116.851562 256.992188 106.773438 258.910156 95.238281 C 265.640625 84.550781 271.035156 78.851562 282.160156 72.917969 C 294.527344 70.976562 303.941406 72.542969 315.457031 77.382812 Z M 315.457031 77.382812 "/>
</g>
</svg>
