<?xml version="1.0" encoding="UTF-8"?> <svg xmlns="http://www.w3.org/2000/svg" width="74" height="35" viewBox="0 0 74 35" fill="none"><rect width="74" height="35" rx="3" fill="white"></rect><path fill-rule="evenodd" clip-rule="evenodd" d="M10 10V13.6996H16.2404V24.6789H19.7987V13.6996H26.0395V10H10ZM32.5384 17.7357V13.3663H37.9719C40.6472 13.3663 41.0381 17.7357 37.4435 17.7357H32.5384ZM37.301 19.9488C37.301 19.9488 41.1291 20.7476 43.0226 18.0485C44.8621 15.4261 43.422 10 38.561 10H28.9801V24.6792H32.5384V19.9488C32.5384 19.9488 36.5741 23.9557 42.1023 24.4735C42.261 24.4883 42.4178 24.5033 42.5726 24.518L42.5729 24.5181C43.4482 24.6016 44.2614 24.6792 45.0199 24.6792V20.7926L45.0186 20.7931C44.9423 20.8218 41.6514 22.0584 37.301 19.9488ZM60.6589 21.0007V10H64V24.6789H60.6589V22.5365C56.1918 26.9558 49.7085 25.0292 48.2778 19.9297C48.0664 19.1754 47.9605 18.3125 47.9605 17.3396V10H51.471V16.9272C51.471 18.3801 51.7984 19.4234 52.451 20.0532C53.5973 21.1596 55.7409 20.9997 55.7409 20.9997C57.0025 20.9172 59.0046 19.4345 59.0046 19.4345C59.0046 19.4345 60.0298 20.4531 60.6589 21.0007Z" fill="black"></path></svg> 