<?xml version="1.0" encoding="UTF-8"?>
<svg xmlns="http://www.w3.org/2000/svg" xmlns:xlink="http://www.w3.org/1999/xlink" width="550px" height="332px" viewBox="0 0 349 132" version="1.1">
<g id="surface1">
<path style=" stroke:none;fill-rule:nonzero;fill:rgb(0%,0%,0%);fill-opacity:1;" d="M 255.117188 9.789062 C 255.238281 9.847656 255.359375 9.902344 255.484375 9.957031 C 257.082031 10.707031 258.570312 11.546875 260.003906 12.589844 C 260.1875 12.71875 260.367188 12.851562 260.550781 12.984375 C 262.71875 14.589844 264.636719 16.394531 266.285156 18.53125 C 266.398438 18.664062 266.511719 18.792969 266.625 18.929688 C 271.117188 24.25 273.121094 31.519531 273.117188 38.382812 C 273.117188 38.699219 273.117188 38.699219 273.117188 39.023438 C 273.121094 39.476562 273.121094 39.929688 273.121094 40.382812 C 273.121094 41.101562 273.125 41.820312 273.128906 42.539062 C 273.128906 42.785156 273.132812 43.035156 273.132812 43.28125 C 273.132812 43.40625 273.132812 43.527344 273.132812 43.65625 C 273.140625 45.328125 273.148438 46.996094 273.148438 48.667969 C 273.152344 49.800781 273.15625 50.929688 273.160156 52.0625 C 273.164062 52.660156 273.167969 53.257812 273.167969 53.851562 C 273.164062 54.519531 273.167969 55.183594 273.175781 55.851562 C 273.171875 56.046875 273.171875 56.238281 273.171875 56.441406 C 273.199219 58.679688 273.96875 60.222656 275.464844 61.839844 C 276.933594 63.253906 278.976562 63.726562 280.945312 63.6875 C 282.914062 63.59375 284.652344 62.644531 285.972656 61.214844 C 287.542969 59.285156 287.832031 56.96875 287.816406 54.539062 C 287.820312 54.324219 287.820312 54.109375 287.820312 53.886719 C 287.820312 53.421875 287.824219 52.957031 287.820312 52.496094 C 287.820312 51.757812 287.824219 51.019531 287.828125 50.285156 C 287.832031 48.71875 287.835938 47.152344 287.835938 45.589844 C 287.839844 43.898438 287.84375 42.210938 287.851562 40.523438 C 287.851562 39.910156 287.855469 39.300781 287.851562 38.6875 C 287.847656 36.167969 287.871094 33.757812 288.449219 31.296875 C 288.503906 31.046875 288.558594 30.800781 288.613281 30.554688 C 290.089844 23.929688 294.019531 17.722656 299.441406 13.636719 C 299.671875 13.449219 299.671875 13.449219 299.910156 13.261719 C 304.320312 9.78125 309.609375 7.855469 315.148438 7.167969 C 315.324219 7.144531 315.5 7.121094 315.683594 7.097656 C 323.363281 6.25 331.28125 8.707031 337.332031 13.453125 C 338.222656 14.183594 339.082031 14.945312 339.925781 15.734375 C 340.066406 15.867188 340.210938 16 340.355469 16.136719 C 343.285156 18.96875 345.5 22.484375 347.082031 26.226562 C 347.183594 26.46875 347.183594 26.46875 347.289062 26.714844 C 347.910156 28.296875 348.277344 29.988281 348.652344 31.644531 C 348.699219 31.847656 348.699219 31.847656 348.746094 32.054688 C 349.042969 33.488281 349.050781 34.90625 349.050781 36.363281 C 349.050781 36.640625 349.054688 36.917969 349.054688 37.195312 C 349.058594 37.945312 349.058594 38.695312 349.058594 39.445312 C 349.058594 39.917969 349.058594 40.386719 349.058594 40.859375 C 349.0625 42.511719 349.066406 44.164062 349.066406 45.816406 C 349.066406 47.339844 349.066406 48.867188 349.074219 50.390625 C 349.078125 51.710938 349.082031 53.03125 349.078125 54.351562 C 349.078125 55.132812 349.082031 55.917969 349.085938 56.703125 C 349.105469 61.734375 348.734375 66.585938 347.605469 71.507812 C 347.574219 71.644531 347.542969 71.78125 347.511719 71.921875 C 346.9375 74.453125 346.164062 76.917969 345.335938 79.375 C 345.285156 79.523438 345.238281 79.667969 345.1875 79.820312 C 343.164062 85.804688 340.070312 91.648438 336.261719 96.683594 C 336.136719 96.851562 336.011719 97.023438 335.882812 97.199219 C 334.996094 98.398438 334.074219 99.558594 333.121094 100.703125 C 332.984375 100.875 332.84375 101.046875 332.703125 101.222656 C 331.496094 102.699219 330.167969 104.050781 328.824219 105.402344 C 328.726562 105.5 328.632812 105.597656 328.535156 105.695312 C 328.261719 105.96875 327.988281 106.242188 327.714844 106.515625 C 327.554688 106.675781 327.394531 106.835938 327.230469 107.003906 C 326.839844 107.347656 326.839844 107.347656 326.488281 107.347656 C 326.488281 107.464844 326.488281 107.578125 326.488281 107.699219 C 326.222656 107.941406 325.945312 108.171875 325.660156 108.398438 C 325.484375 108.539062 325.304688 108.679688 325.125 108.828125 C 325.03125 108.898438 324.9375 108.972656 324.84375 109.050781 C 324.421875 109.390625 324.011719 109.75 323.597656 110.101562 C 321.492188 111.863281 319.222656 113.421875 316.890625 114.867188 C 316.792969 114.929688 316.691406 114.992188 316.589844 115.054688 C 315.824219 115.527344 315.050781 115.984375 314.273438 116.441406 C 314.152344 116.511719 314.03125 116.585938 313.902344 116.660156 C 303.925781 122.527344 292.039062 125.40625 280.519531 125.390625 C 280.390625 125.390625 280.261719 125.390625 280.128906 125.390625 C 277.828125 125.386719 275.554688 125.265625 273.265625 125.007812 C 273.023438 124.980469 273.023438 124.980469 272.769531 124.953125 C 265.410156 124.136719 258.382812 122.070312 251.628906 119.0625 C 251.421875 118.972656 251.421875 118.972656 251.210938 118.878906 C 245.320312 116.3125 239.710938 112.441406 234.980469 108.105469 C 234.730469 107.882812 234.480469 107.660156 234.230469 107.441406 C 233.210938 106.566406 232.257812 105.632812 231.3125 104.683594 C 231.15625 104.527344 231 104.375 230.839844 104.21875 C 229.914062 103.289062 229.054688 102.332031 228.242188 101.304688 C 227.917969 100.90625 227.582031 100.523438 227.230469 100.148438 C 220.878906 93.039062 216.242188 83.496094 213.9375 74.304688 C 213.890625 74.121094 213.84375 73.9375 213.792969 73.75 C 212.136719 67.316406 211.609375 61.003906 211.621094 54.378906 C 211.621094 53.730469 211.621094 53.082031 211.621094 52.433594 C 211.621094 51.351562 211.621094 50.269531 211.621094 49.183594 C 211.625 47.941406 211.625 46.699219 211.621094 45.457031 C 211.621094 44.378906 211.621094 43.296875 211.621094 42.214844 C 211.621094 41.578125 211.621094 40.9375 211.621094 40.296875 C 211.609375 33.519531 211.609375 33.519531 212.386719 30.628906 C 212.425781 30.488281 212.464844 30.34375 212.5 30.199219 C 213.964844 24.820312 216.535156 20.261719 220.394531 16.257812 C 220.535156 16.109375 220.675781 15.957031 220.820312 15.804688 C 229.546875 6.722656 243.863281 4.574219 255.117188 9.789062 Z M 229.117188 26.75 C 226.144531 30.546875 225.078125 34.75 225.078125 39.507812 C 225.078125 39.691406 225.078125 39.871094 225.078125 40.058594 C 225.078125 40.652344 225.074219 41.25 225.074219 41.84375 C 225.074219 42.265625 225.074219 42.683594 225.074219 43.105469 C 225.074219 43.984375 225.074219 44.867188 225.074219 45.746094 C 225.074219 46.640625 225.070312 47.535156 225.070312 48.429688 C 225.019531 55.257812 225.019531 55.257812 225.453125 62.066406 C 225.472656 62.246094 225.492188 62.425781 225.507812 62.609375 C 225.941406 66.730469 226.875 70.746094 228.246094 74.65625 C 228.296875 74.804688 228.351562 74.957031 228.40625 75.109375 C 231.566406 84.0625 237.375 92.855469 244.886719 98.765625 C 245.199219 99.011719 245.503906 99.265625 245.800781 99.527344 C 248.199219 101.621094 250.960938 103.332031 253.722656 104.902344 C 253.832031 104.964844 253.941406 105.027344 254.054688 105.089844 C 258.007812 107.335938 262.410156 109.019531 266.808594 110.144531 C 266.976562 110.1875 266.976562 110.1875 267.144531 110.230469 C 270.863281 111.164062 274.667969 111.664062 278.503906 111.71875 C 278.738281 111.722656 278.738281 111.722656 278.976562 111.726562 C 280.097656 111.742188 281.21875 111.738281 282.339844 111.71875 C 282.492188 111.71875 282.640625 111.714844 282.796875 111.714844 C 286.941406 111.667969 291.097656 110.925781 295.078125 109.796875 C 295.214844 109.757812 295.351562 109.722656 295.492188 109.683594 C 298.925781 108.75 302.269531 107.441406 305.410156 105.765625 C 305.726562 105.597656 306.042969 105.4375 306.359375 105.277344 C 308.96875 103.933594 311.441406 102.34375 313.75 100.53125 C 313.941406 100.386719 314.132812 100.242188 314.324219 100.097656 C 315.980469 98.835938 317.492188 97.4375 318.984375 95.984375 C 319.109375 95.867188 319.230469 95.746094 319.355469 95.625 C 320.78125 94.238281 322.136719 92.84375 323.347656 91.261719 C 323.488281 91.085938 323.628906 90.90625 323.773438 90.71875 C 331.085938 81.386719 335.582031 69.765625 335.589844 57.835938 C 335.59375 57.597656 335.59375 57.355469 335.59375 57.117188 C 335.597656 56.476562 335.597656 55.832031 335.597656 55.191406 C 335.597656 54.785156 335.601562 54.382812 335.601562 53.980469 C 335.601562 52.714844 335.605469 51.449219 335.605469 50.183594 C 335.605469 48.730469 335.609375 47.277344 335.613281 45.824219 C 335.617188 44.695312 335.621094 43.566406 335.621094 42.4375 C 335.621094 41.765625 335.621094 41.09375 335.625 40.421875 C 335.628906 39.789062 335.628906 39.15625 335.625 38.523438 C 335.625 38.1875 335.628906 37.847656 335.628906 37.511719 C 335.609375 32.773438 333.671875 28.761719 330.4375 25.40625 C 328.386719 23.402344 325.777344 21.890625 323 21.15625 C 322.710938 21.078125 322.710938 21.078125 322.417969 20.996094 C 317.898438 19.929688 313.21875 20.832031 309.273438 23.226562 C 305.152344 25.886719 302.796875 29.78125 301.675781 34.488281 C 301.386719 35.839844 301.335938 37.109375 301.332031 38.484375 C 301.328125 38.695312 301.328125 38.90625 301.328125 39.125 C 301.324219 39.699219 301.320312 40.277344 301.320312 40.851562 C 301.316406 41.457031 301.3125 42.0625 301.308594 42.667969 C 301.296875 44.730469 301.289062 46.792969 301.277344 48.851562 C 301.273438 49.992188 301.265625 51.132812 301.257812 52.269531 C 301.253906 52.871094 301.253906 53.472656 301.25 54.074219 C 301.230469 60.101562 301.230469 60.101562 300.378906 62.667969 C 300.335938 62.804688 300.289062 62.945312 300.242188 63.085938 C 298.449219 68.382812 294.605469 72.722656 289.625 75.230469 C 284.621094 77.632812 278.8125 78.007812 273.554688 76.1875 C 268.300781 74.25 263.890625 70.480469 261.523438 65.367188 C 259.871094 61.65625 259.550781 58.132812 259.5625 54.101562 C 259.5625 53.488281 259.558594 52.871094 259.554688 52.253906 C 259.550781 51.089844 259.546875 49.925781 259.546875 48.761719 C 259.546875 46.679688 259.542969 44.597656 259.53125 42.511719 C 259.53125 41.785156 259.527344 41.054688 259.53125 40.328125 C 259.53125 39.765625 259.527344 39.203125 259.527344 38.640625 C 259.527344 38.445312 259.527344 38.246094 259.527344 38.042969 C 259.507812 33.929688 258.230469 29.84375 255.46875 26.75 C 255.292969 26.535156 255.292969 26.535156 255.109375 26.316406 C 252.722656 23.496094 249.601562 21.820312 246.046875 20.980469 C 245.839844 20.929688 245.839844 20.929688 245.632812 20.882812 C 239.460938 19.523438 233.226562 22.113281 229.117188 26.75 Z M 229.117188 26.75 "/>
<path style=" stroke:none;fill-rule:nonzero;fill:rgb(0%,0%,0%);fill-opacity:1;" d="M 139.773438 31.296875 C 139.972656 31.339844 140.171875 31.386719 140.375 31.433594 C 146.628906 32.914062 152.613281 35.632812 157.746094 39.511719 C 157.847656 39.585938 157.945312 39.660156 158.046875 39.738281 C 159.742188 41.007812 161.289062 42.410156 162.808594 43.882812 C 162.953125 44.023438 162.953125 44.023438 163.101562 44.164062 C 164.320312 45.339844 165.425781 46.574219 166.472656 47.90625 C 166.582031 48.035156 166.691406 48.167969 166.804688 48.304688 C 169.515625 51.5625 171.675781 55.355469 173.277344 59.269531 C 173.355469 59.457031 173.433594 59.648438 173.515625 59.84375 C 173.738281 60.40625 173.945312 60.972656 174.152344 61.542969 C 174.199219 61.671875 174.242188 61.796875 174.292969 61.929688 C 175.371094 64.9375 176.085938 67.984375 176.550781 71.148438 C 176.582031 71.351562 176.582031 71.351562 176.613281 71.558594 C 176.992188 74.347656 176.96875 77.152344 176.96875 79.960938 C 176.96875 80.382812 176.96875 80.808594 176.96875 81.230469 C 176.972656 82.253906 176.972656 83.277344 176.972656 84.300781 C 176.972656 85.132812 176.972656 85.964844 176.972656 86.796875 C 176.976562 89.164062 176.976562 91.527344 176.976562 93.894531 C 176.976562 94.082031 176.976562 94.082031 176.976562 94.277344 C 176.976562 94.46875 176.976562 94.46875 176.976562 94.664062 C 176.976562 96.726562 176.976562 98.792969 176.980469 100.859375 C 176.980469 102.984375 176.984375 105.109375 176.984375 107.234375 C 176.984375 108.425781 176.984375 109.617188 176.984375 110.808594 C 176.988281 111.929688 176.988281 113.046875 176.984375 114.164062 C 176.984375 114.574219 176.984375 114.984375 176.988281 115.394531 C 176.988281 115.957031 176.988281 116.515625 176.984375 117.078125 C 176.988281 117.238281 176.988281 117.402344 176.988281 117.566406 C 176.976562 119.570312 176.507812 121.3125 175.144531 122.832031 C 173.402344 124.484375 171.753906 124.910156 169.390625 124.867188 C 167.558594 124.765625 166.125 123.84375 164.859375 122.546875 C 163.050781 120.304688 163.195312 117.820312 163.191406 115.074219 C 163.1875 114.679688 163.183594 114.285156 163.175781 113.890625 C 163.167969 112.933594 163.160156 111.976562 163.15625 111.019531 C 163.03125 111.148438 162.902344 111.28125 162.769531 111.414062 C 162.597656 111.585938 162.425781 111.757812 162.253906 111.933594 C 162.128906 112.0625 162.128906 112.0625 162 112.191406 C 161.160156 113.035156 160.257812 113.785156 159.320312 114.515625 C 159.21875 114.59375 159.121094 114.671875 159.019531 114.75 C 153.003906 119.5 146.054688 122.636719 138.554688 124.132812 C 138.417969 124.160156 138.28125 124.1875 138.140625 124.214844 C 135.34375 124.777344 132.5625 124.867188 129.71875 124.863281 C 129.574219 124.863281 129.425781 124.863281 129.277344 124.863281 C 122.644531 124.847656 116.359375 123.511719 110.285156 120.8125 C 110.132812 120.746094 109.984375 120.679688 109.832031 120.609375 C 108.039062 119.804688 106.339844 118.929688 104.699219 117.839844 C 104.59375 117.765625 104.484375 117.695312 104.371094 117.621094 C 102.054688 116.078125 99.871094 114.414062 97.839844 112.507812 C 97.429688 112.125 97.011719 111.757812 96.585938 111.390625 C 96.085938 110.957031 95.679688 110.5 95.277344 109.972656 C 95.089844 109.78125 95.089844 109.78125 94.894531 109.589844 C 94.441406 109.132812 94 108.664062 93.566406 108.191406 C 93.425781 108.039062 93.289062 107.890625 93.148438 107.734375 C 92.835938 107.347656 92.835938 107.347656 92.835938 107 C 92.71875 107 92.605469 107 92.484375 107 C 92.277344 106.734375 92.277344 106.734375 92.039062 106.355469 C 91.601562 105.675781 91.148438 105.011719 90.683594 104.355469 C 89.222656 102.253906 87.992188 100.046875 86.902344 97.734375 C 86.84375 97.609375 86.785156 97.484375 86.722656 97.359375 C 83.8125 91.144531 82.496094 84.566406 82.503906 77.726562 C 82.507812 77.570312 82.507812 77.414062 82.507812 77.253906 C 82.519531 71.050781 83.644531 65.183594 86.027344 59.445312 C 86.074219 59.328125 86.121094 59.214844 86.167969 59.097656 C 87.878906 54.863281 90.300781 51.074219 93.183594 47.554688 C 93.265625 47.457031 93.34375 47.355469 93.429688 47.253906 C 95.339844 44.921875 97.425781 42.753906 99.8125 40.910156 C 100.035156 40.734375 100.253906 40.558594 100.476562 40.382812 C 105.519531 36.402344 111.253906 33.550781 117.4375 31.820312 C 117.554688 31.785156 117.671875 31.753906 117.792969 31.71875 C 118.519531 31.519531 119.246094 31.355469 119.984375 31.207031 C 120.273438 31.148438 120.558594 31.085938 120.84375 31.023438 C 126.863281 29.726562 133.792969 29.878906 139.773438 31.296875 Z M 104.503906 55.117188 C 103.355469 56.417969 102.367188 57.839844 101.382812 59.269531 C 101.257812 59.453125 101.128906 59.636719 100.996094 59.828125 C 98.433594 63.765625 97.128906 68.152344 96.324219 72.730469 C 96.300781 72.863281 96.277344 73 96.253906 73.136719 C 94.839844 81.460938 97.386719 90.222656 102.125 97.078125 C 102.867188 98.085938 103.660156 99.035156 104.507812 99.953125 C 104.832031 100.308594 105.144531 100.671875 105.453125 101.042969 C 108.285156 104.277344 112.019531 106.574219 115.867188 108.398438 C 116.160156 108.539062 116.160156 108.539062 116.460938 108.679688 C 123.890625 112.070312 132.804688 112.230469 140.472656 109.621094 C 140.59375 109.582031 140.71875 109.542969 140.84375 109.5 C 145.574219 107.941406 149.824219 105.019531 153.386719 101.578125 C 153.507812 101.464844 153.628906 101.351562 153.757812 101.234375 C 159.914062 95.367188 163.089844 86.714844 163.363281 78.351562 C 163.433594 74.941406 163.035156 71.644531 162.109375 68.359375 C 162.074219 68.230469 162.039062 68.097656 162 67.964844 C 161.507812 66.21875 160.804688 64.589844 160.027344 62.953125 C 159.898438 62.679688 159.898438 62.679688 159.769531 62.40625 C 158.925781 60.675781 157.910156 59.078125 156.753906 57.542969 C 156.667969 57.425781 156.578125 57.304688 156.488281 57.183594 C 155.585938 56 154.59375 54.917969 153.558594 53.847656 C 153.421875 53.707031 153.289062 53.5625 153.148438 53.414062 C 148.898438 49.027344 143.339844 46.3125 137.507812 44.757812 C 137.332031 44.707031 137.15625 44.660156 136.976562 44.609375 C 125.121094 41.546875 112.675781 46.480469 104.503906 55.117188 Z M 104.503906 55.117188 "/>
<path style=" stroke:none;fill-rule:nonzero;fill:rgb(0%,0%,0%);fill-opacity:1;" d="M 10.699219 31.679688 C 12.269531 32.878906 12.960938 34.304688 13.652344 36.105469 C 13.871094 36.679688 14.113281 37.234375 14.371094 37.792969 C 14.894531 38.9375 15.371094 40.097656 15.847656 41.261719 C 16.03125 41.710938 16.21875 42.164062 16.402344 42.613281 C 16.449219 42.722656 16.492188 42.832031 16.539062 42.945312 C 16.96875 43.988281 17.40625 45.03125 17.84375 46.070312 C 18.273438 47.082031 18.691406 48.101562 19.105469 49.121094 C 19.375 49.785156 19.660156 50.4375 19.957031 51.089844 C 20.445312 52.152344 20.902344 53.230469 21.355469 54.308594 C 21.4375 54.507812 21.523438 54.707031 21.609375 54.914062 C 22.109375 56.097656 22.601562 57.285156 23.085938 58.472656 C 23.792969 60.199219 24.527344 61.914062 25.253906 63.632812 C 25.550781 64.339844 25.847656 65.042969 26.140625 65.75 C 26.777344 67.265625 27.421875 68.78125 28.0625 70.292969 C 28.167969 70.546875 28.277344 70.800781 28.382812 71.054688 C 28.4375 71.175781 28.488281 71.300781 28.542969 71.429688 C 30.105469 75.125 31.664062 78.820312 33.210938 82.519531 C 34.0625 84.5625 34.917969 86.601562 35.773438 88.640625 C 35.839844 88.804688 35.910156 88.972656 35.980469 89.140625 C 36.699219 90.851562 37.421875 92.554688 38.152344 94.257812 C 38.664062 95.457031 39.167969 96.652344 39.671875 97.855469 C 39.996094 98.632812 40.328125 99.40625 40.660156 100.179688 C 40.699219 100.089844 40.738281 99.996094 40.777344 99.902344 C 40.898438 99.621094 41.015625 99.339844 41.136719 99.0625 C 41.277344 98.730469 41.421875 98.398438 41.5625 98.066406 C 41.90625 97.261719 42.25 96.457031 42.597656 95.648438 C 44.839844 90.421875 44.839844 90.421875 47.023438 85.167969 C 47.644531 83.652344 48.285156 82.148438 48.921875 80.640625 C 49.558594 79.140625 50.1875 77.636719 50.820312 76.136719 C 51.777344 73.867188 52.734375 71.601562 53.691406 69.332031 C 55.296875 65.53125 56.894531 61.726562 58.488281 57.917969 C 58.628906 57.578125 58.773438 57.238281 58.914062 56.902344 C 59.304688 55.972656 59.691406 55.039062 60.082031 54.109375 C 60.691406 52.648438 61.3125 51.195312 61.96875 49.753906 C 62.386719 48.824219 62.753906 47.875 63.113281 46.921875 C 63.480469 45.980469 63.875 45.050781 64.269531 44.125 C 64.441406 43.722656 64.609375 43.324219 64.78125 42.925781 C 64.902344 42.632812 64.902344 42.632812 65.03125 42.335938 C 65.292969 41.714844 65.554688 41.089844 65.816406 40.46875 C 66.039062 39.941406 66.257812 39.410156 66.480469 38.882812 C 66.609375 38.585938 66.730469 38.289062 66.855469 37.992188 C 67.0625 37.5 67.269531 37.007812 67.476562 36.519531 C 67.539062 36.371094 67.601562 36.21875 67.664062 36.066406 C 68.632812 33.789062 69.703125 31.9375 72.042969 30.898438 C 73.855469 30.230469 75.511719 30.199219 77.304688 30.945312 C 79.050781 31.777344 80.476562 33.113281 81.140625 34.96875 C 81.585938 36.660156 81.539062 38.792969 80.792969 40.386719 C 80.726562 40.53125 80.664062 40.679688 80.59375 40.828125 C 80.449219 41.152344 80.296875 41.476562 80.148438 41.800781 C 79.925781 42.300781 79.730469 42.804688 79.539062 43.316406 C 79.15625 44.332031 78.730469 45.324219 78.296875 46.320312 C 77.503906 48.136719 76.730469 49.957031 75.960938 51.785156 C 75.902344 51.925781 75.84375 52.066406 75.78125 52.210938 C 74.855469 54.417969 73.9375 56.628906 73.019531 58.839844 C 71.972656 61.359375 70.914062 63.867188 69.847656 66.378906 C 69.457031 67.292969 69.074219 68.207031 68.6875 69.125 C 68.632812 69.253906 68.578125 69.382812 68.523438 69.511719 C 68.3125 70.019531 68.101562 70.527344 67.886719 71.03125 C 67.164062 72.753906 66.4375 74.476562 65.699219 76.191406 C 65.109375 77.570312 64.53125 78.957031 63.960938 80.347656 C 63.550781 81.339844 63.121094 82.324219 62.667969 83.300781 C 62.460938 83.769531 62.277344 84.246094 62.101562 84.730469 C 61.667969 85.882812 61.171875 87.003906 60.671875 88.128906 C 60.097656 89.417969 59.539062 90.710938 59.023438 92.027344 C 58.386719 93.660156 57.699219 95.269531 57.007812 96.878906 C 56.949219 97.011719 56.894531 97.144531 56.835938 97.28125 C 56.605469 97.8125 56.378906 98.34375 56.152344 98.875 C 54.980469 101.601562 53.820312 104.335938 52.710938 107.09375 C 52.410156 107.839844 52.09375 108.582031 51.757812 109.316406 C 51.238281 110.453125 50.761719 111.609375 50.289062 112.769531 C 50.105469 113.21875 49.917969 113.667969 49.734375 114.117188 C 49.6875 114.226562 49.644531 114.339844 49.597656 114.453125 C 49.109375 115.636719 48.613281 116.816406 48.117188 117.992188 C 47.917969 118.464844 47.722656 118.933594 47.53125 119.410156 C 46.667969 121.539062 45.535156 123.15625 43.492188 124.296875 C 41.910156 124.957031 39.800781 125.027344 38.1875 124.417969 C 37.578125 124.144531 37.023438 123.804688 36.46875 123.433594 C 36.347656 123.359375 36.222656 123.28125 36.09375 123.203125 C 34.109375 121.796875 33.246094 118.125 32.359375 115.988281 C 32.042969 115.234375 31.722656 114.480469 31.40625 113.726562 C 30.332031 111.195312 29.273438 108.660156 28.214844 106.125 C 27.914062 105.414062 27.617188 104.703125 27.320312 103.992188 C 27.273438 103.875 27.222656 103.757812 27.171875 103.636719 C 26.835938 102.835938 26.5 102.03125 26.164062 101.230469 C 25.859375 100.5 25.550781 99.769531 25.246094 99.039062 C 24.636719 97.578125 24.015625 96.125 23.359375 94.6875 C 22.941406 93.753906 22.578125 92.808594 22.214844 91.851562 C 21.855469 90.917969 21.464844 90 21.070312 89.078125 C 20.988281 88.882812 20.90625 88.6875 20.820312 88.484375 C 20.234375 87.105469 19.644531 85.726562 19.054688 84.351562 C 18.59375 83.273438 18.136719 82.195312 17.6875 81.117188 C 17.167969 79.882812 16.644531 78.648438 16.121094 77.414062 C 14.359375 73.253906 12.609375 69.09375 10.867188 64.925781 C 10.546875 64.15625 10.222656 63.386719 9.902344 62.617188 C 9.683594 62.097656 9.46875 61.582031 9.25 61.0625 C 8.945312 60.328125 8.636719 59.59375 8.328125 58.859375 C 8.210938 58.578125 8.09375 58.296875 7.972656 58.015625 C 7.292969 56.382812 6.597656 54.761719 5.875 53.152344 C 5.5625 52.453125 5.269531 51.757812 5.007812 51.039062 C 4.585938 49.914062 4.097656 48.820312 3.609375 47.71875 C 2.945312 46.222656 2.300781 44.71875 1.710938 43.191406 C 1.449219 42.515625 1.175781 41.851562 0.863281 41.199219 C -0.0859375 39.175781 -0.371094 37.257812 0.144531 35.050781 C 0.914062 32.9375 2.359375 31.746094 4.320312 30.820312 C 6.507812 29.953125 8.765625 30.414062 10.699219 31.679688 Z M 10.699219 31.679688 "/>
<path style=" stroke:none;fill-rule:nonzero;fill:rgb(0%,0%,0%);fill-opacity:1;" d="M 246.078125 43.664062 C 247.910156 45.132812 248.84375 46.621094 249.1875 48.953125 C 249.238281 49.714844 249.242188 50.476562 249.246094 51.238281 C 249.25 51.453125 249.25 51.667969 249.253906 51.890625 C 249.261719 52.578125 249.269531 53.261719 249.273438 53.949219 C 249.351562 63.710938 251.789062 71.945312 258.785156 79.023438 C 259.230469 79.460938 259.691406 79.859375 260.179688 80.25 C 260.339844 80.382812 260.503906 80.511719 260.671875 80.648438 C 267.316406 85.972656 275.601562 88.371094 284.058594 87.523438 C 290.417969 86.71875 296.1875 84.105469 301.011719 79.898438 C 301.183594 79.753906 301.351562 79.605469 301.527344 79.453125 C 307.070312 74.574219 310.804688 67.152344 311.484375 59.792969 C 311.582031 57.808594 311.566406 55.820312 311.570312 53.835938 C 311.574219 53.097656 311.578125 52.363281 311.582031 51.625 C 311.585938 51.289062 311.585938 50.949219 311.585938 50.609375 C 311.601562 48.394531 311.984375 46.503906 313.402344 44.757812 C 314.796875 43.386719 316.453125 42.640625 318.398438 42.617188 C 320.480469 42.640625 321.972656 43.261719 323.492188 44.710938 C 325.097656 46.476562 325.320312 48.394531 325.320312 50.699219 C 325.320312 50.941406 325.320312 51.183594 325.324219 51.425781 C 325.324219 51.933594 325.324219 52.445312 325.324219 52.953125 C 325.324219 53.464844 325.324219 53.976562 325.328125 54.488281 C 325.363281 60.09375 324.839844 65.480469 323 70.808594 C 322.933594 71.003906 322.933594 71.003906 322.863281 71.203125 C 321.4375 75.328125 319.480469 79.171875 316.890625 82.695312 C 316.824219 82.789062 316.753906 82.886719 316.683594 82.980469 C 315.78125 84.203125 314.832031 85.347656 313.800781 86.460938 C 313.464844 86.824219 313.148438 87.191406 312.835938 87.570312 C 311.210938 89.433594 309.265625 91.003906 307.292969 92.488281 C 307.199219 92.558594 307.105469 92.632812 307.007812 92.707031 C 297.730469 99.792969 285.734375 102.496094 274.265625 101.050781 C 271.535156 100.671875 268.890625 100.019531 266.285156 99.132812 C 266.066406 99.0625 265.847656 98.992188 265.621094 98.921875 C 260.890625 97.402344 256.5625 94.847656 252.675781 91.789062 C 252.511719 91.660156 252.347656 91.535156 252.179688 91.402344 C 251.148438 90.585938 250.179688 89.695312 249.21875 88.792969 C 249.09375 88.675781 248.96875 88.558594 248.839844 88.4375 C 248.175781 87.8125 247.554688 87.171875 246.972656 86.464844 C 246.734375 86.183594 246.480469 85.929688 246.21875 85.667969 C 245.046875 84.273438 243.992188 82.804688 242.980469 81.285156 C 242.820312 81.050781 242.820312 81.050781 242.660156 80.808594 C 242.558594 80.65625 242.460938 80.507812 242.359375 80.351562 C 242.269531 80.21875 242.179688 80.085938 242.089844 79.945312 C 241.855469 79.550781 241.855469 79.550781 241.671875 79.074219 C 241.546875 78.648438 241.546875 78.648438 241.160156 78.5 C 240.992188 78.210938 240.992188 78.210938 240.816406 77.835938 C 240.753906 77.699219 240.691406 77.5625 240.625 77.421875 C 240.554688 77.273438 240.488281 77.125 240.417969 76.972656 C 240.347656 76.820312 240.277344 76.667969 240.203125 76.507812 C 240.0625 76.203125 239.921875 75.898438 239.78125 75.589844 C 239.625 75.257812 239.464844 74.929688 239.300781 74.601562 C 237.796875 71.542969 236.933594 68.195312 236.273438 64.863281 C 236.246094 64.726562 236.21875 64.585938 236.1875 64.445312 C 235.699219 61.945312 235.546875 59.488281 235.535156 56.941406 C 235.53125 56.753906 235.53125 56.753906 235.53125 56.566406 C 235.527344 55.917969 235.523438 55.269531 235.523438 54.621094 C 235.523438 53.960938 235.515625 53.296875 235.507812 52.632812 C 235.503906 52.117188 235.503906 51.601562 235.503906 51.082031 C 235.5 50.839844 235.5 50.59375 235.496094 50.351562 C 235.46875 48.179688 235.824219 46.390625 237.320312 44.757812 C 239.789062 42.300781 243.050781 42 246.078125 43.664062 Z M 246.078125 43.664062 "/>
<path style=" stroke:none;fill-rule:nonzero;fill:rgb(0%,0%,0%);fill-opacity:1;" d="M 195.078125 0.480469 C 196.988281 1.644531 198.238281 3.042969 198.816406 5.226562 C 199.003906 6.125 199.003906 7.007812 198.996094 7.921875 C 199 8.128906 199 8.339844 199 8.554688 C 199.003906 9.128906 199 9.699219 199 10.273438 C 199 10.894531 199 11.515625 199.003906 12.136719 C 199.007812 13.210938 199.007812 14.285156 199.007812 15.359375 C 199.007812 16.917969 199.007812 18.476562 199.011719 20.039062 C 199.019531 22.574219 199.023438 25.113281 199.023438 27.652344 C 199.023438 27.804688 199.023438 27.957031 199.023438 28.113281 C 199.027344 28.726562 199.027344 29.339844 199.027344 29.957031 C 199.027344 31.640625 199.03125 33.324219 199.03125 35.007812 C 199.03125 35.15625 199.03125 35.308594 199.03125 35.460938 C 199.035156 37.988281 199.039062 40.511719 199.046875 43.039062 C 199.050781 44.589844 199.050781 46.140625 199.050781 47.691406 C 199.050781 48.761719 199.054688 49.828125 199.054688 50.898438 C 199.054688 51.507812 199.058594 52.121094 199.054688 52.734375 C 199.050781 57.074219 199.160156 61.445312 199.847656 65.738281 C 199.882812 65.984375 199.921875 66.230469 199.960938 66.480469 C 200.078125 67.222656 200.199219 67.96875 200.324219 68.710938 C 200.347656 68.828125 200.367188 68.945312 200.386719 69.066406 C 201.609375 76.214844 203.660156 83.234375 206.609375 89.863281 C 206.667969 90.003906 206.730469 90.140625 206.792969 90.28125 C 206.910156 90.542969 207.027344 90.808594 207.144531 91.070312 C 207.292969 91.410156 207.4375 91.746094 207.578125 92.085938 C 210.015625 97.839844 213.394531 103.199219 217.078125 108.222656 C 217.222656 108.421875 217.222656 108.421875 217.371094 108.625 C 218.558594 110.253906 219.761719 111.867188 220.984375 113.46875 C 221.90625 114.679688 222.828125 115.894531 223.710938 117.140625 C 223.785156 117.246094 223.863281 117.351562 223.941406 117.464844 C 224.203125 117.828125 224.464844 118.191406 224.722656 118.558594 C 224.804688 118.671875 224.886719 118.785156 224.972656 118.902344 C 226.046875 120.441406 226.519531 122.242188 226.226562 124.109375 C 225.820312 125.839844 224.96875 127.429688 223.535156 128.503906 C 221.710938 129.601562 219.945312 130.007812 217.839844 129.597656 C 216.199219 129.171875 215.144531 128.273438 213.9375 127.105469 C 213.804688 126.988281 213.804688 126.988281 213.667969 126.871094 C 213.347656 126.503906 213.132812 126.097656 212.902344 125.675781 C 212.617188 125.1875 212.277344 124.757812 211.929688 124.316406 C 211.773438 124.121094 211.621094 123.921875 211.464844 123.722656 C 211.382812 123.617188 211.304688 123.515625 211.21875 123.40625 C 210.789062 122.847656 210.367188 122.28125 209.945312 121.71875 C 209.8125 121.542969 209.8125 121.542969 209.679688 121.363281 C 209.5 121.121094 209.320312 120.882812 209.144531 120.644531 C 208.882812 120.292969 208.621094 119.945312 208.359375 119.597656 C 206.5 117.128906 204.671875 114.640625 202.984375 112.050781 C 202.761719 111.710938 202.539062 111.375 202.3125 111.035156 C 201.054688 109.132812 199.933594 107.15625 198.824219 105.160156 C 198.53125 104.632812 198.222656 104.117188 197.914062 103.601562 C 197.441406 102.792969 197.007812 101.964844 196.585938 101.128906 C 196.523438 101.011719 196.460938 100.890625 196.398438 100.765625 C 196.140625 100.246094 195.964844 99.894531 195.964844 99.304688 C 195.847656 99.25 195.734375 99.191406 195.613281 99.132812 C 195.464844 98.84375 195.464844 98.84375 195.3125 98.46875 C 195.253906 98.328125 195.199219 98.191406 195.140625 98.050781 C 195.082031 97.902344 195.019531 97.753906 194.960938 97.601562 C 194.835938 97.296875 194.710938 96.992188 194.582031 96.6875 C 194.523438 96.535156 194.460938 96.386719 194.394531 96.234375 C 194.160156 95.671875 193.910156 95.125 193.652344 94.574219 C 192.816406 92.789062 192.128906 90.941406 191.496094 89.074219 C 191.453125 88.949219 191.414062 88.828125 191.371094 88.703125 C 188.5625 80.386719 186.679688 72.039062 185.710938 63.3125 C 185.691406 63.128906 185.671875 62.949219 185.652344 62.761719 C 185.304688 59.433594 185.292969 56.09375 185.292969 52.75 C 185.289062 52.121094 185.289062 51.488281 185.289062 50.855469 C 185.285156 49.484375 185.285156 48.109375 185.285156 46.738281 C 185.285156 45.878906 185.28125 45.019531 185.28125 44.160156 C 185.28125 41.777344 185.277344 39.394531 185.277344 37.011719 C 185.277344 36.859375 185.277344 36.710938 185.277344 36.554688 C 185.277344 36.402344 185.277344 36.25 185.277344 36.09375 C 185.277344 35.785156 185.277344 35.476562 185.277344 35.167969 C 185.277344 35.015625 185.277344 34.863281 185.277344 34.703125 C 185.277344 32.222656 185.273438 29.738281 185.269531 27.253906 C 185.265625 24.699219 185.261719 22.144531 185.261719 19.585938 C 185.261719 18.152344 185.261719 16.722656 185.257812 15.289062 C 185.253906 14.070312 185.253906 12.851562 185.257812 11.636719 C 185.257812 11.015625 185.257812 10.394531 185.253906 9.773438 C 185.25 9.101562 185.253906 8.425781 185.253906 7.753906 C 185.253906 7.558594 185.253906 7.363281 185.25 7.164062 C 185.265625 4.984375 185.878906 3.316406 187.359375 1.714844 C 189.289062 -0.152344 192.636719 -0.734375 195.078125 0.480469 Z M 195.078125 0.480469 "/>
</g>
</svg>
